<?xml version="1.0" standalone="no"?>
<!DOCTYPE svg PUBLIC "-//W3C//DTD SVG 20010904//EN"
 "http://www.w3.org/TR/2001/REC-SVG-20010904/DTD/svg10.dtd">
<svg version="1.0" xmlns="http://www.w3.org/2000/svg"
 width="500.000000pt" height="500.000000pt" viewBox="0 0 500.000000 500.000000"
 preserveAspectRatio="xMidYMid meet">
<metadata>
Created by potrace 1.11, written by Peter Selinger 2001-2013
</metadata>
<g transform="translate(0.000000,500.000000) scale(0.100000,-0.100000)"
fill="#000000" stroke="none">
<path d="M2475 4556 c-24 -11 -1060 -1048 -2129 -2133 l-169 -172 6 -40 c3
-23 1 -39 -3 -36 -5 3 -19 -25 -32 -62 -19 -56 -23 -88 -22 -178 0 -125 18
-184 79 -271 19 -27 35 -58 35 -69 0 -47 56 -88 187 -136 32 -12 62 -25 67
-29 4 -5 -3 -28 -17 -52 -26 -44 -33 -82 -42 -226 -5 -67 -3 -82 7 -77 7 4 5
0 -4 -8 -10 -8 -18 -18 -18 -22 0 -5 -12 -24 -27 -44 -15 -19 -28 -41 -29 -48
-3 -16 64 -63 88 -63 30 0 78 52 80 88 1 17 6 32 10 32 4 0 8 26 8 58 1 97 5
132 14 132 6 0 5 5 -2 12 -7 7 -12 17 -12 23 0 5 5 3 11 -5 9 -12 10 -11 6 8
-3 12 -1 22 4 22 5 0 9 9 9 19 0 22 30 35 59 26 11 -3 36 1 56 10 21 8 49 15
64 15 14 0 118 -33 231 -74 113 -41 351 -127 530 -191 179 -65 379 -137 445
-160 66 -24 248 -89 405 -145 157 -57 308 -109 335 -116 64 -18 196 -18 238
-1 40 17 99 66 92 77 -3 4 2 11 11 14 9 4 14 9 11 12 -3 4 4 15 16 25 12 10
19 18 15 19 -3 0 5 12 18 28 13 15 77 104 142 197 65 94 363 521 663 950 745
1066 974 1396 989 1424 14 28 8 109 -11 140 -12 18 -49 41 -69 41 -5 0 -19
-15 -31 -32 -12 -18 -16 -27 -9 -20 21 19 27 15 25 -17 -2 -38 -21 -66 -815
-1206 -880 -1263 -1052 -1510 -1064 -1523 -14 -15 -21 -12 -701 226 -220 77
-465 163 -545 190 -916 316 -968 335 -985 362 -3 6 4 10 17 10 l22 0 -22 16
c-28 19 -29 37 -1 29 20 -7 20 -6 4 19 -17 25 -17 26 5 26 l22 0 -23 20 -24
20 30 -5 c28 -5 29 -5 8 6 -32 17 -28 37 10 48 l32 10 -35 -1 c-19 -1 -46 2
-60 6 -24 8 -24 8 -5 -7 29 -22 7 -44 -26 -26 -41 21 -54 39 -39 52 10 9 11 9
6 0 -5 -9 0 -13 13 -13 14 0 21 6 21 20 0 44 -70 8 -91 -47 -5 -13 -12 -48
-15 -76 -3 -29 -10 -56 -14 -60 -4 -5 -55 8 -114 29 -101 36 -108 41 -136 84
-17 26 -30 54 -30 63 0 9 -4 18 -9 21 -15 10 -31 258 -17 273 2 2 149 -47 327
-108 303 -104 723 -246 1878 -638 261 -88 476 -160 477 -158 1 1 3 29 5 62 l4
59 -37 9 c-22 5 -40 16 -43 27 -7 21 -2 19 -542 205 -205 71 -371 130 -369
132 2 2 215 -66 473 -152 489 -162 532 -172 593 -140 19 10 142 178 390 535
198 286 363 520 366 520 5 0 -62 -99 -376 -560 -273 -401 -371 -540 -388 -549
-11 -7 -12 -11 -4 -11 32 0 118 109 368 470 147 212 416 599 597 860 181 261
429 619 551 795 122 176 245 344 274 373 29 29 50 57 47 62 -3 5 9 36 26 69
28 53 30 65 24 111 -10 75 -36 99 -120 116 -39 7 -270 51 -515 98 -245 47
-715 137 -1046 200 -331 64 -619 116 -640 116 -21 -1 -52 -7 -69 -14z m200
-190 c61 -17 45 -20 -27 -5 l-53 12 -252 -259 c-139 -142 -254 -256 -257 -253
-10 10 498 517 519 518 11 0 43 -6 70 -13z m140 -30 c65 -18 37 -19 -35 -1
-30 7 -46 14 -35 14 11 0 43 -6 70 -13z m228 -47 c81 -18 146 -34 143 -36 -4
-4 -308 57 -315 63 -10 9 33 2 172 -27z m347 -73 c63 -13 126 -27 140 -30 14
-3 36 -8 50 -10 23 -4 90 -18 149 -32 13 -3 21 -7 19 -9 -5 -5 -394 75 -459
93 -61 18 -17 12 101 -12z m448 -95 c24 -5 47 -13 50 -17 4 -4 -4 -4 -18 -1
-14 3 -44 9 -67 13 -24 4 -43 11 -43 16 0 5 8 7 18 4 9 -3 36 -10 60 -15z
m121 -27 c10 -9 -35 -3 -49 6 -11 8 -7 9 15 4 17 -4 32 -8 34 -10z m38 -10
c-3 -3 -12 -4 -19 -1 -8 3 -5 6 6 6 11 1 17 -2 13 -5z m330 -70 c-3 -3 -12 -4
-19 -1 -8 3 -5 6 6 6 11 1 17 -2 13 -5z m83 -14 c20 -6 21 -8 5 -8 -11 0 -33
4 -50 8 -27 7 -27 8 -5 8 14 0 36 -4 50 -8z m67 -16 c-3 -3 -12 -4 -19 -1 -8
3 -5 6 6 6 11 1 17 -2 13 -5z m40 -10 c-3 -3 -12 -4 -19 -1 -8 3 -5 6 6 6 11
1 17 -2 13 -5z m56 -11 c-7 -2 -19 -2 -25 0 -7 3 -2 5 12 5 14 0 19 -2 13 -5z
m10 -48 c-3 -9 -8 -14 -10 -11 -3 3 -2 9 2 15 9 16 15 13 8 -4z m-2523 -89 c0
-3 -4 -8 -10 -11 -5 -3 -10 -1 -10 4 0 6 5 11 10 11 6 0 10 -2 10 -4z m-30
-25 c0 -5 -7 -12 -16 -15 -14 -5 -15 -4 -4 9 14 17 20 19 20 6z m2408 -88
c-19 -27 -60 -85 -93 -130 -32 -46 -60 -81 -63 -79 -5 5 177 256 185 256 3 0
-10 -21 -29 -47z m-2640 -147 c-7 -8 -15 -12 -17 -11 -5 6 10 25 20 25 5 0 4
-6 -3 -14z m2472 -90 c0 -2 -8 -10 -17 -17 -16 -13 -17 -12 -4 4 13 16 21 21
21 13z m-2770 -209 c0 -2 -10 -12 -22 -23 l-23 -19 19 23 c18 21 26 27 26 19z
m2548 -97 c-22 -30 -35 -41 -22 -17 9 16 36 47 41 47 2 0 -6 -13 -19 -30z
m-2628 17 c0 -2 -12 -14 -27 -28 l-28 -24 24 28 c23 25 31 32 31 24z m2540
-141 c0 -2 -8 -10 -17 -17 -16 -13 -17 -12 -4 4 13 16 21 21 21 13z m-70 -96
c-6 -11 -13 -20 -16 -20 -2 0 0 9 6 20 6 11 13 20 16 20 2 0 0 -9 -6 -20z
m-2910 -204 c0 -2 -8 -10 -17 -17 -16 -13 -17 -12 -4 4 13 16 21 21 21 13z
m-115 -467 c31 -12 54 -23 52 -25 -2 -3 -33 6 -68 20 -35 14 -59 25 -52 25 7
1 37 -8 68 -20z m2905 -459 c-12 -16 -24 -30 -26 -30 -3 0 4 14 16 30 12 17
24 30 26 30 3 0 -4 -13 -16 -30z m-35 -50 c-16 -25 -291 -429 -513 -751 -58
-84 -100 -154 -96 -161 4 -6 3 -8 -3 -5 -11 7 -46 -39 -46 -60 0 -7 -4 -10 -8
-7 -11 6 -30 -31 -21 -41 4 -5 1 -5 -5 -1 -7 4 -14 2 -14 -3 -1 -6 -2 -17 -3
-23 -1 -7 -10 -12 -20 -10 -12 2 -16 -1 -10 -10 4 -7 4 -10 -1 -6 -4 4 -14 3
-22 -4 -24 -20 -114 -11 -203 20 -200 70 -1020 376 -1016 379 1 2 249 -84 550
-192 582 -208 609 -215 671 -177 18 11 95 112 189 248 375 538 569 814 573
814 2 0 1 -5 -2 -10z m-3125 -34 c0 -11 -19 -15 -25 -6 -3 5 1 10 9 10 9 0 16
-2 16 -4z m43 -32 c12 -4 12 -11 2 -42 -7 -20 -16 -36 -19 -35 -30 10 -36 21
-30 51 6 31 18 38 47 26z m-53 -25 c0 -6 -4 -7 -10 -4 -5 3 -10 11 -10 16 0 6
5 7 10 4 6 -3 10 -11 10 -16z m-15 -18 c3 -5 2 -12 -3 -15 -5 -3 -9 1 -9 9 0
17 3 19 12 6z m89 -37 c3 -8 2 -12 -4 -9 -6 3 -10 10 -10 16 0 14 7 11 14 -7z
m-91 -32 c-7 -4 -11 -18 -8 -30 2 -12 0 -24 -4 -26 -4 -3 -6 9 -5 27 2 39 1
37 17 37 9 0 9 -2 0 -8z m35 -190 l-2 -34 -35 37 c-32 36 -33 39 -16 51 28 21
56 -9 53 -54z m-53 -9 c31 -35 31 -46 3 -38 -23 7 -23 7 -3 -8 11 -9 17 -19
13 -22 -9 -10 -48 1 -72 20 -17 13 -18 17 -6 28 10 9 12 9 6 0 -5 -9 0 -13 13
-13 22 0 30 19 9 21 -10 0 -10 2 0 6 6 2 12 9 12 14 0 6 -5 7 -12 3 -7 -4 -8
-3 -4 4 10 17 14 15 41 -15z m-65 -57 c0 -11 -19 -15 -25 -6 -3 5 1 10 9 10 9
0 16 -2 16 -4z m38 -34 c8 -6 10 -19 6 -40 -8 -39 -14 -44 -37 -27 -13 9 -15
20 -11 44 7 31 18 38 42 23z m-48 -23 c0 -6 -4 -7 -10 -4 -5 3 -10 11 -10 16
0 6 5 7 10 4 6 -3 10 -11 10 -16z m-15 -18 c3 -5 2 -12 -3 -15 -5 -3 -9 1 -9
9 0 17 3 19 12 6z m-2 -69 c-7 -4 -11 -18 -8 -30 2 -12 0 -24 -4 -26 -4 -3 -6
9 -5 27 2 39 1 37 17 37 9 0 9 -2 0 -8z m35 -190 l-2 -34 -35 37 c-32 36 -33
39 -16 51 28 21 56 -9 53 -54z m-53 -9 c13 -16 25 -34 25 -40 0 -7 5 -13 11
-13 5 0 7 4 4 10 -4 6 1 7 11 3 14 -5 13 -8 -7 -19 -32 -18 -65 -17 -93 1 -28
19 -24 55 5 55 11 0 19 5 19 11 0 5 -5 7 -12 3 -7 -4 -8 -3 -4 4 10 17 14 15
41 -15z"/>
<path d="M4781 3782 c-21 -33 -22 -35 -3 -19 20 18 20 18 25 0 5 -15 5 -15 4
2 -1 11 2 25 6 32 4 6 4 14 -1 16 -4 3 -18 -11 -31 -31z"/>
<path d="M4787 3707 l-18 -32 21 21 c13 12 21 27 19 33 -2 6 -12 -4 -22 -22z"/>
<path d="M4776 3649 l-28 -44 31 34 c18 18 30 38 29 43 -2 6 -16 -9 -32 -33z"/>
<path d="M4800 3640 c0 -5 5 -10 10 -10 6 0 10 5 10 10 0 6 -4 10 -10 10 -5 0
-10 -4 -10 -10z"/>
<path d="M4781 3572 l-24 -37 24 20 c27 23 39 37 39 48 0 17 -17 4 -39 -31z"/>
</g>
</svg>
